PathFileType	4	(x/y/z)	S06_P20_T63
DataRate	CameraRate	NumFrames	NumMarkers	Units	OrigDataRate	OrigDataStartFrame	OrigNumFrames
240	240	4	51	mm	240	311	355
Frame#	Time	Sternum			R.Acromium			L.Acromium			Top.Head			R.ASIS			L.ASIS			R.PSIS			L.PSIS			R.Great.Tro			L.Great.Tro			R.Iliac.Crest			L.Iliac.Crest			V.Sacral			R.Thigh.Upper.Post			R.Thigh.Lower.Ant			R.Thigh.Lower.Post			R.Thigh.Upper.Ant			R.Knee.Lat			R.Knee.Med			R.Shank.Upper.Post			R.Shank.Lower.Ant			R.Shank.Lower.Post			R.Shank.Upper.Ant			R.Ankle.Lat			R.Ankle.Med			R.Heel.Upper			R.Heel.Med			R.Heel.Lat			R.Toe.Lat			R.Toe.Med			R.Toe.Tip			L.Thigh.Upper.Post			L.Thigh.Lower.Ant			L.Thigh.Lower.Post			L.Thigh.Upper.Ant			L.Knee.Lat			L.Knee.Med			L.Shank.Upper.Post			L.Shank.Lower.Ant			L.Shank.Lower.Post			L.Shank.Upper.Ant			L.Ankle.Lat			L.Ankle.Med			L.Heel.Upper			L.Heel.Med			L.Heel.Lat			L.Toe.Lat			L.Toe.Med			L.Toe.Tip			Cervical.Spine			Back			
		X1	Y1	Z1	X2	Y2	Z2	X3	Y3	Z3	X4	Y4	Z4	X5	Y5	Z5	X6	Y6	Z6	X7	Y7	Z7	X8	Y8	Z8	X9	Y9	Z9	X10	Y10	Z10	X11	Y11	Z11	X12	Y12	Z12	X13	Y13	Z13	X14	Y14	Z14	X15	Y15	Z15	X16	Y16	Z16	X17	Y17	Z17	X18	Y18	Z18	X19	Y19	Z19	X20	Y20	Z20	X21	Y21	Z21	X22	Y22	Z22	X23	Y23	Z23	X24	Y24	Z24	X25	Y25	Z25	X26	Y26	Z26	X27	Y27	Z27	X28	Y28	Z28	X29	Y29	Z29	X30	Y30	Z30	X31	Y31	Z31	X32	Y32	Z32	X33	Y33	Z33	X34	Y34	Z34	X35	Y35	Z35	X36	Y36	Z36	X37	Y37	Z37	X38	Y38	Z38	X39	Y39	Z39	X40	Y40	Z40	X41	Y41	Z41	X42	Y42	Z42	X43	Y43	Z43	X44	Y44	Z44	X45	Y45	Z45	X46	Y46	Z46	X47	Y47	Z47	X48	Y48	Z48	X49	Y49	Z49	X50	Y50	Z50	X51	Y51	Z51	

311	1.2917	341.88	1291.7	313.96	218.82	1500.5	479.13	218.37	1497.1	125.33	226.82	1817	299.26	282.71	1057.5	435.44	296.37	1051.2	184.82	89.261	1078.6	336.62	92.423	1083.4	255.9	232.72	990.52	486.04	202.4	987.2	126.01	200.66	1134.4	463.16	232.8	1127.8	146.69	76.968	1046.1	297.98	328.7	757.64	476.61	409.93	703.18	442.65	349.6	672.16	457.56	389.73	791.07	455.78	410.44	578.3	446.15	413.09	581.67	318.31	387.9	351.54	448.25	452.89	293.1	430.04	390.5	274.84	435.08	450.34	368.49	443.11	437.46	141.14	416.15	458.01	147	327.21	381.53	88.022	360.48	399.22	59.783	331.91	393.04	59.82	396.31	562.68	86.636	451.43	594.94	99.563	336.23	651.22	128.8	385.71	251.15	721.11	152.85	291.47	641.72	218.17	227.45	634.94	171.97	311.1	731.75	192.98	204.1	540.33	190.94	224.06	548.97	310.91	120.73	321.38	200.62	173.55	250.12	209.8	102.59	251.74	218.91	187.15	319.11	197.22	123.7	107.5	222.16	125.46	111.01	313.92	41.964	73.281	258.4	43.361	44.949	289.91	50.062	48.847	228.45	230.77	44.669	201.07	242.25	43.934	321.85	317.67	58.212	274.12	159.24	1552.2	302.1	100.82	1281.9	299.38
312	1.2958	347.59	1291.4	313.98	224.37	1500.1	479.25	224.04	1496.8	125.44	232.36	1816.7	299.61	288.67	1057.2	435.56	302.09	1050.6	184.92	95.238	1078.3	337.03	98.216	1083	256.26	238.56	990.2	486.27	207.86	986.73	126.37	206.61	1134.2	463.35	238.52	1127.3	146.82	82.817	1045.7	298.41	332.74	756.41	476.88	413.47	701.37	442.64	352.91	670.81	457.57	393.97	789.41	455.9	413.77	576.91	445.88	415.66	579.96	317.88	396.62	349.53	447.89	463.09	292.73	429.64	401.12	272.87	434.62	458.59	368.05	442.71	451.82	139.95	415.57	472.05	146.81	326.71	397.15	85.357	359.93	415.67	57.763	331.17	409.68	57.303	395.57	578.78	88.748	450.32	610.26	103.36	335.14	665.86	133.98	384.66	254.81	720.66	153.12	294.75	640.96	218.27	230.54	634.66	172.27	314.94	730.84	193.04	206.59	540.12	191.2	226.68	548.64	311.17	122.08	321.53	200.85	174.56	250.02	210	103.62	251.99	219.15	188.49	318.96	197.42	124.01	107.61	222.36	125.77	111	314.09	42.085	73.429	258.58	43.45	45.027	290.04	50.137	49.048	228.57	230.85	44.641	201.1	242.42	43.575	321.94	317.91	57.588	274.15	164.82	1551.9	302.21	106.52	1281.5	299.4
313	1.3	353.32	1291.1	314.01	229.93	1499.7	479.37	229.71	1496.4	125.55	237.91	1816.3	299.95	294.63	1056.9	435.69	307.83	1050.1	185.03	101.25	1078	337.46	104.03	1082.5	256.62	244.39	989.83	486.5	213.34	986.23	126.74	212.58	1134	463.56	244.27	1126.8	146.96	88.688	1045.4	298.84	336.79	755.16	477.19	417.02	699.54	442.64	356.23	669.45	457.59	398.19	787.73	456.04	417.08	575.51	445.62	418.21	578.24	317.45	405.1	347.64	447.53	472.97	292.45	429.25	411.43	271.06	434.16	466.59	367.65	442.32	465.74	138.94	415	485.59	146.8	326.21	412.3	82.976	359.42	431.59	56.027	330.47	425.83	55.082	394.86	594.34	90.967	449.17	624.94	107.22	334	679.89	139.14	383.54	258.52	720.18	153.4	298.11	640.17	218.35	233.69	634.36	172.59	318.83	729.92	193.08	209.15	539.9	191.48	229.39	548.29	311.44	123.49	321.7	201.08	175.61	249.92	210.21	104.68	252.26	219.39	189.88	318.8	197.63	124.32	107.73	222.57	126.09	110.99	314.26	42.207	73.581	258.77	43.541	45.107	290.17	50.212	49.253	228.7	230.93	44.613	201.13	242.61	43.223	322.04	318.16	56.95	274.18	170.4	1551.5	302.32	112.23	1281.1	299.44
314	1.3042	359.06	1290.7	314.05	235.49	1499.2	479.5	235.36	1496.1	125.67	243.46	1815.9	300.3	300.6	1056.6	435.83	313.6	1049.5	185.15	107.31	1077.6	337.91	109.86	1082	256.99	250.21	989.43	486.73	218.86	985.69	127.12	218.55	1133.7	463.78	250.04	1126.2	147.12	94.577	1044.9	299.29	340.85	753.9	477.51	420.58	697.72	442.64	359.56	668.08	457.61	402.42	786.06	456.19	420.39	574.13	445.36	420.78	576.54	317.01	413.33	345.89	447.16	482.51	292.25	428.88	421.41	269.41	433.71	474.34	367.31	441.94	479.19	138.13	414.45	498.62	146.93	325.73	426.92	80.863	358.95	446.92	54.551	329.8	441.44	53.142	394.19	609.31	93.257	447.99	638.95	111.1	332.81	693.29	144.24	382.34	262.28	719.68	153.68	301.54	639.37	218.42	236.9	634.04	172.91	322.78	728.98	193.13	211.78	539.67	191.77	232.19	547.92	311.71	124.95	321.88	201.32	176.71	249.83	210.43	105.79	252.55	219.64	191.32	318.65	197.85	124.64	107.86	222.79	126.41	111	314.44	42.329	73.737	258.98	43.636	45.192	290.32	50.284	49.465	228.84	231.01	44.585	201.18	242.79	42.882	322.14	318.41	56.299	274.2	175.97	1551.1	302.43	117.96	1280.6	299.5
